# xmcd
#
# Track frame offsets:
#	150
#	4326
#	20665
#	36074
#	60923
#	68721
#	88261
#	107400
#	125670
#	147342
#	168260
#	174139
#	188128
#	213312
#	230331
#
# Disc length: 3233 seconds
#
# Revision: 0
# Processed by: cddbd v1.5.2PL0 Copyright (c) Steve Scherf et al.
# Submitted via: EZCDAudioConverter 5.5.1.1
#
DISCID=c20c9f0f
DTITLE=Tweet - Charlene
DYEAR=2016
DGENRE=R&B
TTITLE0=Intro: Soulfully Yours Charlene
TTITLE1=Magic
TTITLE2=Won't Hurt Me
TTITLE3=Priceless
TTITLE4=Interlude: All I See Is You
TTITLE5=Somebody Else Will (ft Missy Elliot)
TTITLE6=Addicted
TTITLE7=Neva Shouda Left Ya
TTITLE8=The Hardest Thing
TTITLE9=Got Watcha Want
TTITLE10=Interlude: Will You Be Here
TTITLE11=I Didnt Know
TTITLE12=Dadada.......Struggle
TTITLE13=I Was Created For This
TTITLE14=Outro: I Surrender
EXTD=
EXTT0=
EXTT1=
EXTT2=
EXTT3=
EXTT4=
EXTT5=
EXTT6=
EXTT7=
EXTT8=
EXTT9=
EXTT10=
EXTT11=
EXTT12=
EXTT13=
EXTT14=
PLAYORDER=
